<?xml version="1.0" encoding="UTF-8" standalone="no"?><!DOCTYPE svg PUBLIC "-//W3C//DTD SVG 1.1//EN" "http://www.w3.org/Graphics/SVG/1.1/DTD/svg11.dtd"><svg width="100%" height="100%" viewBox="0 0 150 150" version="1.1" xmlns="http://www.w3.org/2000/svg" xmlns:xlink="http://www.w3.org/1999/xlink" xml:space="preserve" xmlns:serif="http://www.serif.com/" style="fill-rule:evenodd;clip-rule:evenodd;stroke-linejoin:round;stroke-miterlimit:2;"><rect x="0" y="0" width="150" height="150" style="fill:none;fill-rule:nonzero;"/><path d="M96.875,87.5l-4.937,0l-1.75,-1.688c6.125,-7.124 9.812,-16.374 9.812,-26.437c0,-22.438 -18.188,-40.625 -40.625,-40.625c-22.438,0 -40.625,18.188 -40.625,40.625c0,22.438 18.188,40.625 40.625,40.625c10.063,0 19.313,-3.687 26.438,-9.813l1.687,1.751l0,4.937l31.25,31.188l9.313,-9.313l-31.188,-31.25Zm-37.5,0c-15.562,0 -28.125,-12.562 -28.125,-28.125c0,-15.562 12.563,-28.125 28.125,-28.125c15.563,0 28.125,12.563 28.125,28.125c0,15.563 -12.562,28.125 -28.125,28.125Z" style="fill:#422680;fill-rule:nonzero;"/></svg>